<svg height="512" viewBox="0 0 64 64" width="512" xmlns="http://www.w3.org/2000/svg"><g id="Document-files"><path d="m47.5 17a4.494 4.494 0 0 0 -4.5 4.5v39.5h-40v-39a5 5 0 0 1 5-5z" fill="#ffeb99"/><path d="m56.5 50h-13.5v-28.5a4.5 4.5 0 0 1 9 0v24a4.507 4.507 0 0 0 4.5 4.5z" fill="#ff9811"/><path d="m61 3v42.5a4.5 4.5 0 0 1 -9 0v-24a4.507 4.507 0 0 0 -4.5-4.5h-26.5v-14l4 3 4-3 4 3 4-3 4 3 4-3 4 3 4-3 4 3z" fill="#ffeb99"/><path d="m61.45 2.11a1 1 0 0 0 -1.05.09l-3.4 2.55-3.4-2.55a.99.99 0 0 0 -1.2 0l-3.4 2.55-3.4-2.55a.99.99 0 0 0 -1.2 0l-3.4 2.55-3.4-2.55a.99.99 0 0 0 -1.2 0l-3.4 2.55-3.4-2.55a.99.99 0 0 0 -1.2 0l-3.4 2.55-3.4-2.55a1 1 0 0 0 -1.6.8v13h-12a6 6 0 0 0 -6 6v39a1 1 0 0 0 1 1h40a1 1 0 0 0 1-1v-10h12.5a5.51 5.51 0 0 0 5.5-5.5v-42.5a.988.988 0 0 0 -.55-.89zm-19.45 19.39v38.5h-38v-38a4 4 0 0 1 4-4h35.26a5.451 5.451 0 0 0 -1.26 3.5zm2 27.5v-27.5a3.5 3.5 0 0 1 7 0v24a5.451 5.451 0 0 0 1.26 3.5zm16-3.5a3.5 3.5 0 0 1 -7 0v-24.5h-.03a5.5 5.5 0 0 0 -5.47-5h-25.5v-11l2.4 1.8a.99.99 0 0 0 1.2 0l3.4-2.55 3.4 2.55a.99.99 0 0 0 1.2 0l3.4-2.55 3.4 2.55a.99.99 0 0 0 1.2 0l3.4-2.55 3.4 2.55a.99.99 0 0 0 1.2 0l3.4-2.55 3.4 2.55a.99.99 0 0 0 1.2 0l2.4-1.8z"/><path d="m8 35h30v2h-30z"/><path d="m8 41h30v2h-30z"/><path d="m8 47h30v2h-30z"/><path d="m8 53h30v2h-30z"/><path d="m8 23h30v2h-30z"/><path d="m8 29h30v2h-30z"/></g></svg>